<svg viewBox="0 0 895 394" width="895" height="394" xmlns="http://www.w3.org/2000/svg" data-routing-version="2">
  <defs>
    <marker id="arrow" markerWidth="10" markerHeight="10" refX="8" refY="5" orient="auto">
      <path d="M0,0 L10,5 L0,10 z" fill="var(--color-border-strong)" />
    </marker>
  </defs>
  <rect x="64.0" y="130.0" width="502.3" height="282.0" rx="14" fill="var(--color-bg-sidebar)" stroke="var(--color-border-default)" stroke-width="1" stroke-dasharray="4 4" />
  <text x="80.0" y="152.0" font-size="11" fill="var(--color-text-tertiary)" font-weight="700" letter-spacing="0.08em">Audit Pool [Container Boundary]</text>
  <g data-relationship-id="rel-jobrunner-audit-to-pg" data-view-id="view-component-audit-pool" data-target-label="Poll/lock audit queue rows">
    <path d="M 538.3 199.0 L 566.3 199.0 Q 576.3 199.0 576.3 209.0 L 576.3 211.0 Q 576.3 221.0 586.3 221.0 L 634.3 221.0" stroke="var(--color-border-strong)" stroke-width="1.5" fill="none" marker-end="url(#arrow)" />
    <path d="M 538.3 199.0 L 566.3 199.0 Q 576.3 199.0 576.3 209.0 L 576.3 211.0 Q 576.3 221.0 586.3 221.0 L 634.3 221.0" stroke="transparent" stroke-width="14" fill="none" />
  </g>
  <g data-relationship-id="rel-jobrunner-audit-dispatch-appender" data-view-id="view-component-audit-pool" data-target-label="Dispatch append_audit jobs">
    <path d="M 352.4 199.0 L 343.4 199.0 Q 334.4 199.0 334.4 190.0 L 334.4 164.0 Q 334.4 154.0 324.4 154.0 L 210.2 154.0 Q 201.2 154.0 201.2 145.0 L 201.2 145.0 Q 201.2 136.0 201.2 145.0 L 201.2 154.0" stroke="var(--color-border-strong)" stroke-width="1.5" fill="none" marker-end="url(#arrow)" />
    <path d="M 352.4 199.0 L 343.4 199.0 Q 334.4 199.0 334.4 190.0 L 334.4 164.0 Q 334.4 154.0 324.4 154.0 L 210.2 154.0 Q 201.2 154.0 201.2 145.0 L 201.2 145.0 Q 201.2 136.0 201.2 145.0 L 201.2 154.0" stroke="transparent" stroke-width="14" fill="none" />
  </g>
  <g data-relationship-id="rel-jobrunner-audit-dispatch-finalizer" data-view-id="view-component-audit-pool" data-target-label="Dispatch periodic verification jobs">
    <path d="M 445.4 244.0 L 445.4 356.0 Q 445.4 366.0 435.4 366.0 L 209.2 366.0 Q 201.2 366.0 201.2 374.0 L 201.2 374.0 Q 201.2 382.0 201.2 374.0 L 201.2 364.0" stroke="var(--color-border-strong)" stroke-width="1.5" fill="none" marker-end="url(#arrow)" />
    <path d="M 445.4 244.0 L 445.4 356.0 Q 445.4 366.0 435.4 366.0 L 209.2 366.0 Q 201.2 366.0 201.2 374.0 L 201.2 374.0 Q 201.2 382.0 201.2 374.0 L 201.2 364.0" stroke="transparent" stroke-width="14" fill="none" />
  </g>
  <g data-relationship-id="rel-audit-async-appender-to-pg" data-view-id="view-component-audit-pool" data-target-label="Append hash-chained audit_events (async path)">
    <path d="M 310.4 199.0 L 319.4 199.0 Q 328.4 199.0 328.4 208.0 L 328.4 258.0 Q 328.4 268.0 338.4 268.0 L 724.5 268.0 Q 732.5 268.0 732.5 276.0 L 732.5 276.0 Q 732.5 284.0 732.5 276.0 L 732.5 266.0" stroke="var(--color-border-strong)" stroke-width="1.5" fill="none" marker-end="url(#arrow)" />
    <path d="M 310.4 199.0 L 319.4 199.0 Q 328.4 199.0 328.4 208.0 L 328.4 258.0 Q 328.4 268.0 338.4 268.0 L 724.5 268.0 Q 732.5 268.0 732.5 276.0 L 732.5 276.0 Q 732.5 284.0 732.5 276.0 L 732.5 266.0" stroke="transparent" stroke-width="14" fill="none" />
  </g>
  <g data-relationship-id="rel-auditfinalizer-to-pg" data-view-id="view-component-audit-pool" data-target-label="Verify hash chain end-to-end">
    <path d="M 291.2 319.0 L 556.3 319.0 Q 566.3 319.0 566.3 309.0 L 566.3 168.0 Q 566.3 158.0 576.3 158.0 L 723.5 158.0 Q 732.5 158.0 732.5 167.0 L 732.5 176.0" stroke="var(--color-border-strong)" stroke-width="1.5" fill="none" marker-end="url(#arrow)" />
    <path d="M 291.2 319.0 L 556.3 319.0 Q 566.3 319.0 566.3 309.0 L 566.3 168.0 Q 566.3 158.0 576.3 158.0 L 723.5 158.0 Q 732.5 158.0 732.5 167.0 L 732.5 176.0" stroke="transparent" stroke-width="14" fill="none" />
  </g>
  <g class="diagram-node" data-element="teal" data-element-id="comp-jobrunner-audit" data-view-id="view-component-audit-pool" data-target-label="Audit Job Runner">
    <rect x="352.4" y="154.0" width="185.9" height="90.0" rx="12" fill="var(--color-element-teal-fill)" stroke="var(--color-element-teal)" stroke-width="2" />
    <path d="M 364.4 154.0 H 526.3 Q 538.3 154.0 538.3 166.0 V 173.0 H 352.4 V 166.0 Q 352.4 154.0 364.4 154.0 Z" data-node-header="true" fill="var(--color-element-teal)" fill-opacity="0.18" />
    <text x="445.4" y="164.2" text-anchor="middle" dominant-baseline="middle" font-size="9" font-weight="600" fill="var(--color-text-primary)">Component</text>
    <text x="445.4" y="206.0" text-anchor="middle" font-size="14" font-weight="600" fill="var(--color-text-primary)">Audit Job Runner</text>
    <text x="445.4" y="224.0" text-anchor="middle" font-size="11" fill="var(--color-text-secondary)">pg-boss</text>
  </g>
  <g class="diagram-node" data-element="teal" data-element-id="comp-audit-async-appender" data-view-id="view-component-audit-pool" data-target-label="Async Audit Appender">
    <rect x="92.0" y="154.0" width="218.4" height="90.0" rx="12" fill="var(--color-element-teal-fill)" stroke="var(--color-element-teal)" stroke-width="2" />
    <path d="M 104.0 154.0 H 298.4 Q 310.4 154.0 310.4 166.0 V 173.0 H 92.0 V 166.0 Q 92.0 154.0 104.0 154.0 Z" data-node-header="true" fill="var(--color-element-teal)" fill-opacity="0.18" />
    <text x="201.2" y="164.2" text-anchor="middle" dominant-baseline="middle" font-size="9" font-weight="600" fill="var(--color-text-primary)">Component</text>
    <text x="201.2" y="206.0" text-anchor="middle" font-size="14" font-weight="600" fill="var(--color-text-primary)">Async Audit Appender</text>
    <text x="201.2" y="224.0" text-anchor="middle" font-size="11" fill="var(--color-text-secondary)">TypeScript handler</text>
  </g>
  <g class="diagram-node" data-element="teal" data-element-id="comp-audit-finalizer" data-view-id="view-component-audit-pool" data-target-label="Audit Finalizer">
    <rect x="111.2" y="274.0" width="180.0" height="90.0" rx="12" fill="var(--color-element-teal-fill)" stroke="var(--color-element-teal)" stroke-width="2" />
    <path d="M 123.2 274.0 H 279.2 Q 291.2 274.0 291.2 286.0 V 293.0 H 111.2 V 286.0 Q 111.2 274.0 123.2 274.0 Z" data-node-header="true" fill="var(--color-element-teal)" fill-opacity="0.18" />
    <text x="201.2" y="284.2" text-anchor="middle" dominant-baseline="middle" font-size="9" font-weight="600" fill="var(--color-text-primary)">Component</text>
    <text x="201.2" y="326.0" text-anchor="middle" font-size="14" font-weight="600" fill="var(--color-text-primary)">Audit Finalizer</text>
    <text x="201.2" y="344.0" text-anchor="middle" font-size="11" fill="var(--color-text-secondary)">TypeScript handler</text>
  </g>
  <g class="diagram-node" data-element="slate" data-element-id="container-postgres" data-view-id="view-component-audit-pool" data-target-label="Postgres">
    <rect x="634.3" y="176.0" width="196.4" height="90.0" rx="12" fill="var(--color-element-slate-fill)" stroke="var(--color-element-slate)" stroke-width="2" />
    <path d="M 646.3 176.0 H 818.7 Q 830.7 176.0 830.7 188.0 V 195.0 H 634.3 V 188.0 Q 634.3 176.0 646.3 176.0 Z" data-node-header="true" fill="var(--color-element-slate)" fill-opacity="0.18" />
    <text x="732.5" y="186.2" text-anchor="middle" dominant-baseline="middle" font-size="9" font-weight="600" fill="var(--color-text-primary)">Database</text>
    <text x="732.5" y="228.0" text-anchor="middle" font-size="14" font-weight="600" fill="var(--color-text-primary)">Postgres</text>
    <text x="732.5" y="246.0" text-anchor="middle" font-size="11" fill="var(--color-text-secondary)">Postgres (Neon or RDS)</text>
  </g>
</svg>
