<svg viewBox="0 0 812 576" width="812" height="576" xmlns="http://www.w3.org/2000/svg" data-routing-version="2">
  <defs>
    <marker id="arrow" markerWidth="10" markerHeight="10" refX="8" refY="5" orient="auto">
      <path d="M0,0 L10,5 L0,10 z" fill="var(--color-border-strong)" />
    </marker>
  </defs>
  <rect x="64.0" y="130.0" width="420.0" height="282.0" rx="14" fill="var(--color-bg-sidebar)" stroke="var(--color-border-default)" stroke-width="1" stroke-dasharray="4 4" />
  <text x="80.0" y="152.0" font-size="11" fill="var(--color-text-tertiary)" font-weight="700" letter-spacing="0.08em">PDF Sealing Pool [Container Boundary]</text>
  <g data-relationship-id="rel-jobrunner-pdf-to-pg" data-view-id="view-component-pdf-pool" data-target-label="Poll/lock pdf-sealing queue rows">
    <path d="M 272.0 319.0 L 281.0 319.0 Q 290.0 319.0 290.0 310.0 L 290.0 296.0 Q 290.0 286.0 300.0 286.0 L 640.2 286.0 Q 650.2 286.0 650.2 276.0 L 650.2 266.0" stroke="var(--color-border-strong)" stroke-width="1.5" fill="none" marker-end="url(#arrow)" />
    <path d="M 272.0 319.0 L 281.0 319.0 Q 290.0 319.0 290.0 310.0 L 290.0 296.0 Q 290.0 286.0 300.0 286.0 L 640.2 286.0 Q 650.2 286.0 650.2 276.0 L 650.2 266.0" stroke="transparent" stroke-width="14" fill="none" />
  </g>
  <g data-relationship-id="rel-jobrunner-pdf-dispatch" data-view-id="view-component-pdf-pool" data-target-label="Dispatch pdf sealing jobs">
    <path d="M 182.0 274.0 L 182.0 259.0 Q 182.0 256.0 182.0 259.0 L 182.0 259.0 Q 182.0 262.0 182.0 259.0 L 182.0 244.0" stroke="var(--color-border-strong)" stroke-width="1.5" fill="none" marker-end="url(#arrow)" />
    <path d="M 182.0 274.0 L 182.0 259.0 Q 182.0 256.0 182.0 259.0 L 182.0 259.0 Q 182.0 262.0 182.0 259.0 L 182.0 244.0" stroke="transparent" stroke-width="14" fill="none" />
  </g>
  <g data-relationship-id="rel-pdfsealer-to-s3" data-view-id="view-component-pdf-pool" data-target-label="Write sealed PDF">
    <path d="M 92.0 199.0 L 74.0 199.0 Q 64.0 199.0 64.0 209.0 L 64.0 402.0 Q 64.0 412.0 74.0 412.0 L 168.4 412.0 Q 177.4 412.0 177.4 421.0 L 177.4 430.0" stroke="var(--color-border-strong)" stroke-width="1.5" fill="none" marker-end="url(#arrow)" />
    <path d="M 92.0 199.0 L 74.0 199.0 Q 64.0 199.0 64.0 209.0 L 64.0 402.0 Q 64.0 412.0 74.0 412.0 L 168.4 412.0 Q 177.4 412.0 177.4 421.0 L 177.4 430.0" stroke="transparent" stroke-width="14" fill="none" />
  </g>
  <g data-relationship-id="rel-pdfsealer-to-pg" data-view-id="view-component-pdf-pool" data-target-label="Persist sealed PDF SHA-256 + state">
    <path d="M 182.0 154.0 L 182.0 136.5 Q 182.0 136.0 182.0 136.5 L 182.0 136.5 Q 182.0 137.0 182.5 137.0 L 640.2 137.0 Q 650.2 137.0 650.2 147.0 L 650.2 176.0" stroke="var(--color-border-strong)" stroke-width="1.5" fill="none" marker-end="url(#arrow)" />
    <path d="M 182.0 154.0 L 182.0 136.5 Q 182.0 136.0 182.0 136.5 L 182.0 136.5 Q 182.0 137.0 182.5 137.0 L 640.2 137.0 Q 650.2 137.0 650.2 147.0 L 650.2 176.0" stroke="transparent" stroke-width="14" fill="none" />
  </g>
  <g data-relationship-id="rel-pdfsealer-enqueue-audit" data-view-id="view-component-pdf-pool" data-target-label="Enqueue append_audit on the audit queue">
    <path d="M 272.0 199.0 L 412.0 199.0 Q 422.0 199.0 422.0 209.0 L 422.0 211.0 Q 422.0 221.0 432.0 221.0 L 552.0 221.0" stroke="var(--color-border-strong)" stroke-width="1.5" fill="none" marker-end="url(#arrow)" />
    <path d="M 272.0 199.0 L 412.0 199.0 Q 422.0 199.0 422.0 209.0 L 422.0 211.0 Q 422.0 221.0 432.0 221.0 L 552.0 221.0" stroke="transparent" stroke-width="14" fill="none" />
  </g>
  <g class="diagram-node" data-element="teal" data-element-id="comp-jobrunner-pdf" data-view-id="view-component-pdf-pool" data-target-label="PDF Job Runner">
    <rect x="92.0" y="274.0" width="180.0" height="90.0" rx="12" fill="var(--color-element-teal-fill)" stroke="var(--color-element-teal)" stroke-width="2" />
    <path d="M 104.0 274.0 H 260.0 Q 272.0 274.0 272.0 286.0 V 293.0 H 92.0 V 286.0 Q 92.0 274.0 104.0 274.0 Z" data-node-header="true" fill="var(--color-element-teal)" fill-opacity="0.18" />
    <text x="182.0" y="284.2" text-anchor="middle" dominant-baseline="middle" font-size="9" font-weight="600" fill="var(--color-text-primary)">Component</text>
    <text x="182.0" y="326.0" text-anchor="middle" font-size="14" font-weight="600" fill="var(--color-text-primary)">PDF Job Runner</text>
    <text x="182.0" y="344.0" text-anchor="middle" font-size="11" fill="var(--color-text-secondary)">pg-boss</text>
  </g>
  <g class="diagram-node" data-element="teal" data-element-id="comp-pdf-sealer" data-view-id="view-component-pdf-pool" data-target-label="PDF Sealer">
    <rect x="92.0" y="154.0" width="180.0" height="90.0" rx="12" fill="var(--color-element-teal-fill)" stroke="var(--color-element-teal)" stroke-width="2" />
    <path d="M 104.0 154.0 H 260.0 Q 272.0 154.0 272.0 166.0 V 173.0 H 92.0 V 166.0 Q 92.0 154.0 104.0 154.0 Z" data-node-header="true" fill="var(--color-element-teal)" fill-opacity="0.18" />
    <text x="182.0" y="164.2" text-anchor="middle" dominant-baseline="middle" font-size="9" font-weight="600" fill="var(--color-text-primary)">Component</text>
    <text x="182.0" y="206.0" text-anchor="middle" font-size="14" font-weight="600" fill="var(--color-text-primary)">PDF Sealer</text>
    <text x="182.0" y="224.0" text-anchor="middle" font-size="11" fill="var(--color-text-secondary)">pdf-lib (Node)</text>
  </g>
  <g class="diagram-node" data-element="slate" data-element-id="container-postgres" data-view-id="view-component-pdf-pool" data-target-label="Postgres">
    <rect x="552.0" y="176.0" width="196.4" height="90.0" rx="12" fill="var(--color-element-slate-fill)" stroke="var(--color-element-slate)" stroke-width="2" />
    <path d="M 564.0 176.0 H 736.4 Q 748.4 176.0 748.4 188.0 V 195.0 H 552.0 V 188.0 Q 552.0 176.0 564.0 176.0 Z" data-node-header="true" fill="var(--color-element-slate)" fill-opacity="0.18" />
    <text x="650.2" y="186.2" text-anchor="middle" dominant-baseline="middle" font-size="9" font-weight="600" fill="var(--color-text-primary)">Database</text>
    <text x="650.2" y="228.0" text-anchor="middle" font-size="14" font-weight="600" fill="var(--color-text-primary)">Postgres</text>
    <text x="650.2" y="246.0" text-anchor="middle" font-size="11" fill="var(--color-text-secondary)">Postgres (Neon or RDS)</text>
  </g>
  <g class="diagram-node" data-element="ochre" data-element-id="ext-s3" data-view-id="view-component-pdf-pool" data-target-label="Object Storage">
    <rect x="76.0" y="430.0" width="202.7" height="90.0" rx="12" fill="var(--color-element-ochre-fill)" stroke="var(--color-element-ochre)" stroke-width="2" />
    <path d="M 88.0 430.0 H 266.7 Q 278.7 430.0 278.7 442.0 V 449.0 H 76.0 V 442.0 Q 76.0 430.0 88.0 430.0 Z" data-node-header="true" fill="var(--color-element-ochre)" fill-opacity="0.18" />
    <text x="177.4" y="440.2" text-anchor="middle" dominant-baseline="middle" font-size="9" font-weight="600" fill="var(--color-text-primary)">External System</text>
    <text x="177.4" y="482.0" text-anchor="middle" font-size="14" font-weight="600" fill="var(--color-text-primary)">Object Storage</text>
    <text x="177.4" y="500.0" text-anchor="middle" font-size="11" fill="var(--color-text-secondary)">AWS S3 or Cloudflare R2</text>
  </g>
</svg>
