<svg viewBox="0 0 1287 746" width="1287" height="746" xmlns="http://www.w3.org/2000/svg" data-routing-version="2">
  <defs>
    <marker id="arrow" markerWidth="10" markerHeight="10" refX="8" refY="5" orient="auto">
      <path d="M0,0 L10,5 L0,10 z" fill="var(--color-border-strong)" />
    </marker>
  </defs>
  <rect x="336.6" y="130.0" width="613.3" height="560.0" rx="14" fill="var(--color-bg-sidebar)" stroke="var(--color-border-default)" stroke-width="1" stroke-dasharray="4 4" />
  <text x="352.6" y="152.0" font-size="11" fill="var(--color-text-tertiary)" font-weight="700" letter-spacing="0.08em">System Boundary</text>
  <g data-relationship-id="rel-admin-to-web" data-view-id="view-container" data-target-label="Admin console (HTTPS)">
    <path d="M 258.6 175.0 L 296.6 175.0 Q 306.6 175.0 306.6 185.0 L 306.6 186.0 Q 306.6 196.0 316.6 196.0 L 364.6 196.0" stroke="var(--color-border-strong)" stroke-width="1.5" fill="none" marker-end="url(#arrow)" />
    <path d="M 258.6 175.0 L 296.6 175.0 Q 306.6 175.0 306.6 185.0 L 306.6 186.0 Q 306.6 196.0 316.6 196.0 L 364.6 196.0" stroke="transparent" stroke-width="14" fill="none" />
  </g>
  <g data-relationship-id="rel-signer-to-web" data-view-id="view-container" data-target-label="Signer flow via magic link">
    <path d="M 258.6 299.0 L 306.6 299.0 Q 316.6 299.0 316.6 289.0 L 316.6 224.0 Q 316.6 214.0 326.6 214.0 L 364.6 214.0" stroke="var(--color-border-strong)" stroke-width="1.5" fill="none" marker-end="url(#arrow)" />
    <path d="M 258.6 299.0 L 306.6 299.0 Q 316.6 299.0 316.6 289.0 L 316.6 224.0 Q 316.6 214.0 326.6 214.0 L 364.6 214.0" stroke="transparent" stroke-width="14" fill="none" />
  </g>
  <g data-relationship-id="rel-developer-to-web" data-view-id="view-container" data-target-label="REST API calls">
    <path d="M 258.6 423.0 L 332.7 423.0 Q 342.7 423.0 342.7 413.0 L 342.7 278.0 Q 342.7 268.0 352.7 268.0 L 439.9 268.0 Q 448.9 268.0 448.9 259.0 L 448.9 250.0" stroke="var(--color-border-strong)" stroke-width="1.5" fill="none" marker-end="url(#arrow)" />
    <path d="M 258.6 423.0 L 332.7 423.0 Q 342.7 423.0 342.7 413.0 L 342.7 278.0 Q 342.7 268.0 352.7 268.0 L 439.9 268.0 Q 448.9 268.0 448.9 259.0 L 448.9 250.0" stroke="transparent" stroke-width="14" fill="none" />
  </g>
  <g data-relationship-id="rel-web-to-workos" data-view-id="view-container" data-target-label="Federated admin login">
    <path d="M 599.3 196.0 L 608.3 196.0 Q 617.3 196.0 617.3 187.0 L 617.3 144.0 Q 617.3 134.0 627.3 134.0 L 1107.9 134.0 Q 1117.9 134.0 1117.9 144.0 L 1117.9 196.0" stroke="var(--color-border-strong)" stroke-width="1.5" fill="none" marker-end="url(#arrow)" />
    <path d="M 599.3 196.0 L 608.3 196.0 Q 617.3 196.0 617.3 187.0 L 617.3 144.0 Q 617.3 134.0 627.3 134.0 L 1107.9 134.0 Q 1117.9 134.0 1117.9 144.0 L 1117.9 196.0" stroke="transparent" stroke-width="14" fill="none" />
  </g>
  <g data-relationship-id="rel-web-to-postgres" data-view-id="view-container" data-target-label="Transactional reads/writes (with RLS)">
    <path d="M 599.3 214.0 L 611.3 214.0 Q 621.3 214.0 621.3 224.0 L 621.3 597.0 Q 621.3 607.0 611.3 607.0 L 561.0 607.0" stroke="var(--color-border-strong)" stroke-width="1.5" fill="none" marker-end="url(#arrow)" />
    <path d="M 599.3 214.0 L 611.3 214.0 Q 621.3 214.0 621.3 224.0 L 621.3 597.0 Q 621.3 607.0 611.3 607.0 L 561.0 607.0" stroke="transparent" stroke-width="14" fill="none" />
  </g>
  <g data-relationship-id="rel-web-to-s3" data-view-id="view-container" data-target-label="Upload raw PDFs; serve signed URLs">
    <path d="M 482.0 160.0 L 482.0 151.0 Q 482.0 142.0 491.0 142.0 L 653.3 142.0 Q 663.3 142.0 663.3 152.0 L 663.3 479.0 Q 663.3 489.0 673.3 489.0 L 1027.9 489.0" stroke="var(--color-border-strong)" stroke-width="1.5" fill="none" marker-end="url(#arrow)" />
    <path d="M 482.0 160.0 L 482.0 151.0 Q 482.0 142.0 491.0 142.0 L 653.3 142.0 Q 663.3 142.0 663.3 152.0 L 663.3 479.0 Q 663.3 489.0 673.3 489.0 L 1027.9 489.0" stroke="transparent" stroke-width="14" fill="none" />
  </g>
  <g data-relationship-id="rel-web-enqueues-jobs" data-view-id="view-container" data-target-label="Enqueue jobs onto per-concern queues (in-tx with business writes)">
    <path d="M 515.1 250.0 L 515.1 259.0 Q 515.1 268.0 506.1 268.0 L 352.6 268.0 Q 342.6 268.0 342.6 278.0 L 342.6 583.5 Q 342.6 593.5 352.6 593.5 L 364.6 593.5" stroke="var(--color-border-strong)" stroke-width="1.5" fill="none" marker-end="url(#arrow)" />
    <path d="M 515.1 250.0 L 515.1 259.0 Q 515.1 268.0 506.1 268.0 L 352.6 268.0 Q 342.6 268.0 342.6 278.0 L 342.6 583.5 Q 342.6 593.5 352.6 593.5 L 364.6 593.5" stroke="transparent" stroke-width="14" fill="none" />
  </g>
  <g data-relationship-id="rel-pdf-pool-to-postgres" data-view-id="view-container" data-target-label="Poll pdf-sealing queue; persist sealed-PDF SHA-256">
    <path d="M 687.3 205.0 L 678.3 205.0 Q 669.3 205.0 669.3 214.0 L 669.3 644.0 Q 669.3 654.0 659.3 654.0 L 497.5 654.0 Q 489.5 654.0 489.5 662.0 L 489.5 662.0 Q 489.5 670.0 489.5 662.0 L 489.5 652.0" stroke="var(--color-border-strong)" stroke-width="1.5" fill="none" marker-end="url(#arrow)" />
    <path d="M 687.3 205.0 L 678.3 205.0 Q 669.3 205.0 669.3 214.0 L 669.3 644.0 Q 669.3 654.0 659.3 654.0 L 497.5 654.0 Q 489.5 654.0 489.5 662.0 L 489.5 662.0 Q 489.5 670.0 489.5 662.0 L 489.5 652.0" stroke="transparent" stroke-width="14" fill="none" />
  </g>
  <g data-relationship-id="rel-pdf-pool-to-s3" data-view-id="view-container" data-target-label="Write sealed PDFs">
    <path d="M 921.9 205.0 L 985.9 205.0 Q 995.9 205.0 995.9 215.0 L 995.9 428.0 Q 995.9 438.0 1005.9 438.0 L 1238.7 438.0 Q 1248.7 438.0 1248.7 448.0 L 1248.7 480.0 Q 1248.7 489.0 1239.7 489.0 L 1230.7 489.0" stroke="var(--color-border-strong)" stroke-width="1.5" fill="none" marker-end="url(#arrow)" />
    <path d="M 921.9 205.0 L 985.9 205.0 Q 995.9 205.0 995.9 215.0 L 995.9 428.0 Q 995.9 438.0 1005.9 438.0 L 1238.7 438.0 Q 1248.7 438.0 1248.7 448.0 L 1248.7 480.0 Q 1248.7 489.0 1239.7 489.0 L 1230.7 489.0" stroke="transparent" stroke-width="14" fill="none" />
  </g>
  <g data-relationship-id="rel-pdf-pool-to-audit-queue" data-view-id="view-container" data-target-label="Enqueue append_audit on completion">
    <path d="M 804.6 250.0 L 804.6 259.0 Q 804.6 268.0 795.6 268.0 L 675.3 268.0 Q 665.3 268.0 665.3 278.0 L 665.3 583.5 Q 665.3 593.5 655.3 593.5 L 561.0 593.5" stroke="var(--color-border-strong)" stroke-width="1.5" fill="none" marker-end="url(#arrow)" />
    <path d="M 804.6 250.0 L 804.6 259.0 Q 804.6 268.0 795.6 268.0 L 675.3 268.0 Q 665.3 268.0 665.3 278.0 L 665.3 583.5 Q 665.3 593.5 655.3 593.5 L 561.0 593.5" stroke="transparent" stroke-width="14" fill="none" />
  </g>
  <g data-relationship-id="rel-webhook-pool-to-postgres" data-view-id="view-container" data-target-label="Poll webhook-delivery queue; update delivery status / DLQ">
    <path d="M 368.7 345.0 L 356.7 345.0 Q 346.7 345.0 346.7 355.0 L 346.7 611.5 Q 346.7 620.5 355.7 620.5 L 364.6 620.5" stroke="var(--color-border-strong)" stroke-width="1.5" fill="none" marker-end="url(#arrow)" />
    <path d="M 368.7 345.0 L 356.7 345.0 Q 346.7 345.0 346.7 355.0 L 346.7 611.5 Q 346.7 620.5 355.7 620.5 L 364.6 620.5" stroke="transparent" stroke-width="14" fill="none" />
  </g>
  <g data-relationship-id="rel-webhook-pool-to-customer" data-view-id="view-container" data-target-label="HMAC-signed webhook delivery (with retry/DLQ)">
    <path d="M 595.2 345.0 L 655.3 345.0 Q 665.3 345.0 665.3 355.0 L 665.3 603.0 Q 665.3 613.0 675.3 613.0 L 1027.9 613.0" stroke="var(--color-border-strong)" stroke-width="1.5" fill="none" marker-end="url(#arrow)" />
    <path d="M 595.2 345.0 L 655.3 345.0 Q 665.3 345.0 665.3 355.0 L 665.3 603.0 Q 665.3 613.0 675.3 613.0 L 1027.9 613.0" stroke="transparent" stroke-width="14" fill="none" />
  </g>
  <g data-relationship-id="rel-webhook-pool-to-audit-queue" data-view-id="view-container" data-target-label="Enqueue append_audit for delivery outcomes">
    <path d="M 482.0 390.0 L 482.0 399.0 Q 482.0 408.0 473.0 408.0 L 356.7 408.0 Q 346.7 408.0 346.7 418.0 L 346.7 598.0 Q 346.7 607.0 355.7 607.0 L 364.6 607.0" stroke="var(--color-border-strong)" stroke-width="1.5" fill="none" marker-end="url(#arrow)" />
    <path d="M 482.0 390.0 L 482.0 399.0 Q 482.0 408.0 473.0 408.0 L 356.7 408.0 Q 346.7 408.0 346.7 418.0 L 346.7 598.0 Q 346.7 607.0 355.7 607.0 L 364.6 607.0" stroke="transparent" stroke-width="14" fill="none" />
  </g>
  <g data-relationship-id="rel-audit-pool-to-postgres" data-view-id="view-container" data-target-label="Poll audit queue; append + verify audit_events">
    <path d="M 804.6 390.0 L 804.6 399.0 Q 804.6 408.0 795.6 408.0 L 711.8 408.0 Q 701.8 408.0 701.8 418.0 L 701.8 610.5 Q 701.8 620.5 691.8 620.5 L 561.0 620.5" stroke="var(--color-border-strong)" stroke-width="1.5" fill="none" marker-end="url(#arrow)" />
    <path d="M 804.6 390.0 L 804.6 399.0 Q 804.6 408.0 795.6 408.0 L 711.8 408.0 Q 701.8 408.0 701.8 418.0 L 701.8 610.5 Q 701.8 620.5 691.8 620.5 L 561.0 620.5" stroke="transparent" stroke-width="14" fill="none" />
  </g>
  <g data-relationship-id="rel-notifications-pool-to-postgres" data-view-id="view-container" data-target-label="Poll notifications queue; re-enqueue reminders; expire stale tokens">
    <path d="M 371.0 485.0 L 362.0 485.0 Q 353.0 485.0 353.0 494.0 L 353.0 644.0 Q 353.0 654.0 363.0 654.0 L 428.1 654.0 Q 436.1 654.0 436.1 662.0 L 436.1 662.0 Q 436.1 670.0 436.1 662.0 L 436.1 652.0" stroke="var(--color-border-strong)" stroke-width="1.5" fill="none" marker-end="url(#arrow)" />
    <path d="M 371.0 485.0 L 362.0 485.0 Q 353.0 485.0 353.0 494.0 L 353.0 644.0 Q 353.0 654.0 363.0 654.0 L 428.1 654.0 Q 436.1 654.0 436.1 662.0 L 436.1 662.0 Q 436.1 670.0 436.1 662.0 L 436.1 652.0" stroke="transparent" stroke-width="14" fill="none" />
  </g>
  <g data-relationship-id="rel-notifications-pool-to-email" data-view-id="view-container" data-target-label="Send transactional email">
    <path d="M 592.9 485.0 L 933.9 485.0 Q 943.9 485.0 943.9 475.0 L 943.9 375.0 Q 943.9 365.0 953.9 365.0 L 1027.9 365.0" stroke="var(--color-border-strong)" stroke-width="1.5" fill="none" marker-end="url(#arrow)" />
    <path d="M 592.9 485.0 L 933.9 485.0 Q 943.9 485.0 943.9 475.0 L 943.9 375.0 Q 943.9 365.0 953.9 365.0 L 1027.9 365.0" stroke="transparent" stroke-width="14" fill="none" />
  </g>
  <g data-relationship-id="rel-notifications-pool-to-audit-queue" data-view-id="view-container" data-target-label="Enqueue append_audit for invitation_sent etc.">
    <path d="M 482.0 530.0 L 482.0 539.0 Q 482.0 548.0 473.0 548.0 L 464.8 548.0 Q 462.8 548.0 462.8 546.0 L 462.8 546.0 Q 462.8 544.0 462.8 546.0 L 462.8 562.0" stroke="var(--color-border-strong)" stroke-width="1.5" fill="none" marker-end="url(#arrow)" />
    <path d="M 482.0 530.0 L 482.0 539.0 Q 482.0 548.0 473.0 548.0 L 464.8 548.0 Q 462.8 548.0 462.8 546.0 L 462.8 546.0 Q 462.8 544.0 462.8 546.0 L 462.8 562.0" stroke="transparent" stroke-width="14" fill="none" />
  </g>
  <g class="diagram-node" data-element="sage" data-element-id="person-admin" data-view-id="view-container" data-target-label="Admin / Sender">
    <rect x="24.0" y="130.0" width="234.6" height="90.0" rx="12" fill="var(--color-element-sage-fill)" stroke="var(--color-element-sage)" stroke-width="2" />
    <path d="M 36.0 130.0 H 246.6 Q 258.6 130.0 258.6 142.0 V 149.0 H 24.0 V 142.0 Q 24.0 130.0 36.0 130.0 Z" data-node-header="true" fill="var(--color-element-sage)" fill-opacity="0.18" />
    <text x="141.3" y="140.2" text-anchor="middle" dominant-baseline="middle" font-size="9" font-weight="600" fill="var(--color-text-primary)">Person</text>
    <text x="141.3" y="182.0" text-anchor="middle" font-size="14" font-weight="600" fill="var(--color-text-primary)">Admin / Sender</text>
    <text x="141.3" y="200.0" text-anchor="middle" font-size="11" fill="var(--color-text-secondary)">Tenant-side user who create…</text>
  </g>
  <g class="diagram-node" data-element="sage" data-element-id="person-signer" data-view-id="view-container" data-target-label="Signer">
    <rect x="24.0" y="254.0" width="234.6" height="90.0" rx="12" fill="var(--color-element-sage-fill)" stroke="var(--color-element-sage)" stroke-width="2" />
    <path d="M 36.0 254.0 H 246.6 Q 258.6 254.0 258.6 266.0 V 273.0 H 24.0 V 266.0 Q 24.0 254.0 36.0 254.0 Z" data-node-header="true" fill="var(--color-element-sage)" fill-opacity="0.18" />
    <text x="141.3" y="264.2" text-anchor="middle" dominant-baseline="middle" font-size="9" font-weight="600" fill="var(--color-text-primary)">Person</text>
    <text x="141.3" y="306.0" text-anchor="middle" font-size="14" font-weight="600" fill="var(--color-text-primary)">Signer</text>
    <text x="141.3" y="324.0" text-anchor="middle" font-size="11" fill="var(--color-text-secondary)">External recipient who ente…</text>
  </g>
  <g class="diagram-node" data-element="sage" data-element-id="person-developer" data-view-id="view-container" data-target-label="Customer Developer">
    <rect x="24.0" y="378.0" width="234.6" height="90.0" rx="12" fill="var(--color-element-sage-fill)" stroke="var(--color-element-sage)" stroke-width="2" />
    <path d="M 36.0 378.0 H 246.6 Q 258.6 378.0 258.6 390.0 V 397.0 H 24.0 V 390.0 Q 24.0 378.0 36.0 378.0 Z" data-node-header="true" fill="var(--color-element-sage)" fill-opacity="0.18" />
    <text x="141.3" y="388.2" text-anchor="middle" dominant-baseline="middle" font-size="9" font-weight="600" fill="var(--color-text-primary)">Person</text>
    <text x="141.3" y="430.0" text-anchor="middle" font-size="14" font-weight="600" fill="var(--color-text-primary)">Customer Developer</text>
    <text x="141.3" y="448.0" text-anchor="middle" font-size="11" fill="var(--color-text-secondary)">Engineer at a customer comp…</text>
  </g>
  <g class="diagram-node" data-element="plum" data-element-id="container-web" data-view-id="view-container" data-target-label="Web / API Monolith">
    <rect x="364.6" y="160.0" width="234.6" height="90.0" rx="12" fill="var(--color-element-plum-fill)" stroke="var(--color-element-plum)" stroke-width="2" />
    <path d="M 376.6 160.0 H 587.3 Q 599.3 160.0 599.3 172.0 V 179.0 H 364.6 V 172.0 Q 364.6 160.0 376.6 160.0 Z" data-node-header="true" fill="var(--color-element-plum)" fill-opacity="0.18" />
    <text x="482.0" y="170.2" text-anchor="middle" dominant-baseline="middle" font-size="9" font-weight="600" fill="var(--color-text-primary)">Container</text>
    <text x="482.0" y="212.0" text-anchor="middle" font-size="14" font-weight="600" fill="var(--color-text-primary)">Web / API Monolith</text>
    <text x="482.0" y="230.0" text-anchor="middle" font-size="11" fill="var(--color-text-secondary)">Next.js (TypeScript), tRPC/…</text>
  </g>
  <g class="diagram-node" data-element="plum" data-element-id="container-pdf-pool" data-view-id="view-container" data-target-label="PDF Sealing Pool">
    <rect x="687.3" y="160.0" width="234.6" height="90.0" rx="12" fill="var(--color-element-plum-fill)" stroke="var(--color-element-plum)" stroke-width="2" />
    <path d="M 699.3 160.0 H 909.9 Q 921.9 160.0 921.9 172.0 V 179.0 H 687.3 V 172.0 Q 687.3 160.0 699.3 160.0 Z" data-node-header="true" fill="var(--color-element-plum)" fill-opacity="0.18" />
    <text x="804.6" y="170.2" text-anchor="middle" dominant-baseline="middle" font-size="9" font-weight="600" fill="var(--color-text-primary)">Container</text>
    <text x="804.6" y="212.0" text-anchor="middle" font-size="14" font-weight="600" fill="var(--color-text-primary)">PDF Sealing Pool</text>
    <text x="804.6" y="230.0" text-anchor="middle" font-size="11" fill="var(--color-text-secondary)">Node (TypeScript), pg-boss,…</text>
  </g>
  <g class="diagram-node" data-element="plum" data-element-id="container-webhook-pool" data-view-id="view-container" data-target-label="Webhook Delivery Pool">
    <rect x="368.7" y="300.0" width="226.5" height="90.0" rx="12" fill="var(--color-element-plum-fill)" stroke="var(--color-element-plum)" stroke-width="2" />
    <path d="M 380.7 300.0 H 583.2 Q 595.2 300.0 595.2 312.0 V 319.0 H 368.7 V 312.0 Q 368.7 300.0 380.7 300.0 Z" data-node-header="true" fill="var(--color-element-plum)" fill-opacity="0.18" />
    <text x="482.0" y="310.2" text-anchor="middle" dominant-baseline="middle" font-size="9" font-weight="600" fill="var(--color-text-primary)">Container</text>
    <text x="482.0" y="352.0" text-anchor="middle" font-size="14" font-weight="600" fill="var(--color-text-primary)">Webhook Delivery Pool</text>
    <text x="482.0" y="370.0" text-anchor="middle" font-size="11" fill="var(--color-text-secondary)">Node (TypeScript), pg-boss</text>
  </g>
  <g class="diagram-node" data-element="plum" data-element-id="container-audit-pool" data-view-id="view-container" data-target-label="Audit Pool">
    <rect x="693.7" y="300.0" width="221.9" height="90.0" rx="12" fill="var(--color-element-plum-fill)" stroke="var(--color-element-plum)" stroke-width="2" />
    <path d="M 705.7 300.0 H 903.5 Q 915.5 300.0 915.5 312.0 V 319.0 H 693.7 V 312.0 Q 693.7 300.0 705.7 300.0 Z" data-node-header="true" fill="var(--color-element-plum)" fill-opacity="0.18" />
    <text x="804.6" y="310.2" text-anchor="middle" dominant-baseline="middle" font-size="9" font-weight="600" fill="var(--color-text-primary)">Container</text>
    <text x="804.6" y="352.0" text-anchor="middle" font-size="14" font-weight="600" fill="var(--color-text-primary)">Audit Pool</text>
    <text x="804.6" y="370.0" text-anchor="middle" font-size="11" fill="var(--color-text-secondary)">Node (TypeScript), pg-boss</text>
  </g>
  <g class="diagram-node" data-element="plum" data-element-id="container-notifications-pool" data-view-id="view-container" data-target-label="Notifications Pool">
    <rect x="371.0" y="440.0" width="221.9" height="90.0" rx="12" fill="var(--color-element-plum-fill)" stroke="var(--color-element-plum)" stroke-width="2" />
    <path d="M 383.0 440.0 H 580.9 Q 592.9 440.0 592.9 452.0 V 459.0 H 371.0 V 452.0 Q 371.0 440.0 383.0 440.0 Z" data-node-header="true" fill="var(--color-element-plum)" fill-opacity="0.18" />
    <text x="482.0" y="450.2" text-anchor="middle" dominant-baseline="middle" font-size="9" font-weight="600" fill="var(--color-text-primary)">Container</text>
    <text x="482.0" y="492.0" text-anchor="middle" font-size="14" font-weight="600" fill="var(--color-text-primary)">Notifications Pool</text>
    <text x="482.0" y="510.0" text-anchor="middle" font-size="11" fill="var(--color-text-secondary)">Node (TypeScript), pg-boss</text>
  </g>
  <g class="diagram-node" data-element="slate" data-element-id="container-postgres" data-view-id="view-container" data-target-label="Postgres">
    <rect x="364.6" y="562.0" width="196.4" height="90.0" rx="12" fill="var(--color-element-slate-fill)" stroke="var(--color-element-slate)" stroke-width="2" />
    <path d="M 376.6 562.0 H 549.0 Q 561.0 562.0 561.0 574.0 V 581.0 H 364.6 V 574.0 Q 364.6 562.0 376.6 562.0 Z" data-node-header="true" fill="var(--color-element-slate)" fill-opacity="0.18" />
    <text x="462.8" y="572.2" text-anchor="middle" dominant-baseline="middle" font-size="9" font-weight="600" fill="var(--color-text-primary)">Database</text>
    <text x="462.8" y="614.0" text-anchor="middle" font-size="14" font-weight="600" fill="var(--color-text-primary)">Postgres</text>
    <text x="462.8" y="632.0" text-anchor="middle" font-size="11" fill="var(--color-text-secondary)">Postgres (Neon or RDS)</text>
  </g>
  <g class="diagram-node" data-element="ochre" data-element-id="ext-workos" data-view-id="view-container" data-target-label="WorkOS">
    <rect x="1027.9" y="196.0" width="180.0" height="90.0" rx="12" fill="var(--color-element-ochre-fill)" stroke="var(--color-element-ochre)" stroke-width="2" />
    <path d="M 1039.9 196.0 H 1195.9 Q 1207.9 196.0 1207.9 208.0 V 215.0 H 1027.9 V 208.0 Q 1027.9 196.0 1039.9 196.0 Z" data-node-header="true" fill="var(--color-element-ochre)" fill-opacity="0.18" />
    <text x="1117.9" y="206.2" text-anchor="middle" dominant-baseline="middle" font-size="9" font-weight="600" fill="var(--color-text-primary)">External System</text>
    <text x="1117.9" y="248.0" text-anchor="middle" font-size="14" font-weight="600" fill="var(--color-text-primary)">WorkOS</text>
    <text x="1117.9" y="266.0" text-anchor="middle" font-size="11" fill="var(--color-text-secondary)">WorkOS</text>
  </g>
  <g class="diagram-node" data-element="ochre" data-element-id="ext-email" data-view-id="view-container" data-target-label="Email Provider">
    <rect x="1027.9" y="320.0" width="180.0" height="90.0" rx="12" fill="var(--color-element-ochre-fill)" stroke="var(--color-element-ochre)" stroke-width="2" />
    <path d="M 1039.9 320.0 H 1195.9 Q 1207.9 320.0 1207.9 332.0 V 339.0 H 1027.9 V 332.0 Q 1027.9 320.0 1039.9 320.0 Z" data-node-header="true" fill="var(--color-element-ochre)" fill-opacity="0.18" />
    <text x="1117.9" y="330.2" text-anchor="middle" dominant-baseline="middle" font-size="9" font-weight="600" fill="var(--color-text-primary)">External System</text>
    <text x="1117.9" y="372.0" text-anchor="middle" font-size="14" font-weight="600" fill="var(--color-text-primary)">Email Provider</text>
    <text x="1117.9" y="390.0" text-anchor="middle" font-size="11" fill="var(--color-text-secondary)">Postmark or Resend</text>
  </g>
  <g class="diagram-node" data-element="ochre" data-element-id="ext-s3" data-view-id="view-container" data-target-label="Object Storage">
    <rect x="1027.9" y="444.0" width="202.7" height="90.0" rx="12" fill="var(--color-element-ochre-fill)" stroke="var(--color-element-ochre)" stroke-width="2" />
    <path d="M 1039.9 444.0 H 1218.7 Q 1230.7 444.0 1230.7 456.0 V 463.0 H 1027.9 V 456.0 Q 1027.9 444.0 1039.9 444.0 Z" data-node-header="true" fill="var(--color-element-ochre)" fill-opacity="0.18" />
    <text x="1129.3" y="454.2" text-anchor="middle" dominant-baseline="middle" font-size="9" font-weight="600" fill="var(--color-text-primary)">External System</text>
    <text x="1129.3" y="496.0" text-anchor="middle" font-size="14" font-weight="600" fill="var(--color-text-primary)">Object Storage</text>
    <text x="1129.3" y="514.0" text-anchor="middle" font-size="11" fill="var(--color-text-secondary)">AWS S3 or Cloudflare R2</text>
  </g>
  <g class="diagram-node" data-element="ochre" data-element-id="ext-customer-system" data-view-id="view-container" data-target-label="Customer System">
    <rect x="1027.9" y="568.0" width="234.6" height="90.0" rx="12" fill="var(--color-element-ochre-fill)" stroke="var(--color-element-ochre)" stroke-width="2" />
    <path d="M 1039.9 568.0 H 1250.6 Q 1262.6 568.0 1262.6 580.0 V 587.0 H 1027.9 V 580.0 Q 1027.9 568.0 1039.9 568.0 Z" data-node-header="true" fill="var(--color-element-ochre)" fill-opacity="0.18" />
    <text x="1145.2" y="578.2" text-anchor="middle" dominant-baseline="middle" font-size="9" font-weight="600" fill="var(--color-text-primary)">External System</text>
    <text x="1145.2" y="620.0" text-anchor="middle" font-size="14" font-weight="600" fill="var(--color-text-primary)">Customer System</text>
    <text x="1145.2" y="638.0" text-anchor="middle" font-size="11" fill="var(--color-text-secondary)">Consume webhook events and …</text>
  </g>
</svg>
